<svg xmlns="http://www.w3.org/2000/svg" viewBox="0 0 16 16"><path d="M14.4 8L14.4 13.06C14.4 13.707 14.391 13.863 14.344 14.034C14.339 14.054 14.339 14.054 14.332 14.075C14.292 14.182 14.182 14.292 14.042 14.343C14.054 14.339 14.054 14.339 14.034 14.344C13.863 14.391 13.707 14.4 13.06 14.4L2.94 14.4C2.293 14.4 2.137 14.391 1.966 14.344C1.946 14.339 1.946 14.339 1.925 14.332C1.818 14.292 1.708 14.182 1.657 14.042C1.661 14.054 1.661 14.054 1.656 14.034C1.609 13.863 1.6 13.707 1.6 13.06L1.6 2.94C1.6 2.293 1.609 2.137 1.656 1.966C1.661 1.946 1.661 1.946 1.668 1.925C1.708 1.818 1.818 1.708 1.958 1.657C1.946 1.661 1.946 1.661 1.966 1.656C2.137 1.609 2.293 1.6 2.94 1.6L13.06 1.6C13.707 1.6 13.863 1.609 14.034 1.656C14.054 1.661 14.054 1.661 14.075 1.668C14.182 1.708 14.292 1.818 14.343 1.958C14.339 1.946 14.339 1.946 14.344 1.966C14.391 2.137 14.4 2.293 14.4 2.94L14.4 8ZM16 8L16 2.94C16 2.135 15.987 1.906 15.887 1.543C15.873 1.493 15.873 1.493 15.858 1.443C15.634 0.826 15.174 0.366 14.59 0.153C14.507 0.127 14.507 0.127 14.457 0.113C14.094 0.013 13.865 0 13.06 0L2.94 0C2.135 0 1.906 0.013 1.543 0.113C1.493 0.127 1.493 0.127 1.443 0.142C0.826 0.366 0.366 0.826 0.153 1.41C0.127 1.493 0.127 1.493 0.113 1.543C0.013 1.906 0 2.135 0 2.94L0 13.06C0 13.865 0.013 14.094 0.113 14.457C0.127 14.507 0.127 14.507 0.142 14.557C0.366 15.174 0.826 15.634 1.41 15.847C1.493 15.873 1.493 15.873 1.543 15.887C1.906 15.987 2.135 16 2.94 16L13.06 16C13.865 16 14.094 15.987 14.457 15.887C14.507 15.873 14.507 15.873 14.557 15.858C15.174 15.634 15.634 15.174 15.847 14.59C15.873 14.507 15.873 14.507 15.887 14.457C15.987 14.094 16 13.865 16 13.06L16 8ZM11.2 8L11.2 11.23C11.2 11.538 11.2 11.692 11.148 11.858C11.082 12.039 10.939 12.182 10.758 12.248C10.592 12.3 10.438 12.3 10.13 12.3L5.87 12.3C5.562 12.3 5.408 12.3 5.242 12.248C5.061 12.182 4.918 12.039 4.852 11.858C4.8 11.692 4.8 11.538 4.8 11.23L4.8 4.77C4.8 4.462 4.8 4.308 4.852 4.142C4.918 3.961 5.061 3.818 5.242 3.752C5.408 3.7 5.562 3.7 5.87 3.7L10.13 3.7C10.438 3.7 10.592 3.7 10.758 3.752C10.939 3.818 11.082 3.961 11.148 4.142C11.2 4.308 11.2 4.462 11.2 4.77Z"/></svg>
